# xmcd
#
# Track frame offsets:
#	150
#	15659
#	31766
#	50146
#	69763
#	84889
#	100398
#	116505
#	134886
#	154503
#
# Disc length: 2261 seconds
#
# Revision: 0
# Processed by: cddbd v1.5.2PL0 Copyright (c) Steve Scherf et al.
# Submitted via: audiograbber 1.83.01
#
DISCID=7908d30a
DTITLE=Various Artist - More Country Classics
DYEAR=1900
DGENRE=Karaoke
TTITLE0=Billy Ray Cyrus - Achy Breaky Heart
TTITLE1=Charlie Daniels Band - The Devil Went Down To Georgia
TTITLE2=Alabama - Mountain Music
TTITLE3=Garth Brooks - Wraped Up In You
TTITLE4=Brooks and Dunn - Boot Scootin' Boogie
TTITLE5=Billy Ray Cyrus - Achy Breaky Heart (Vocal)
TTITLE6=Charlie Daniels Band - the Devil Went Down To Georgia (Vocal)
TTITLE7=Alabama - Mountain Music (Vocal)
TTITLE8=Garth Brooks - Wrapped Up In You (Vocal)
TTITLE9=Brooks and Dunn - Boot Scootin' Boogie (Vocal)
EXTD=
EXTT0=
EXTT1=
EXTT2=
EXTT3=
EXTT4=
EXTT5=
EXTT6=
EXTT7=
EXTT8=
EXTT9=
PLAYORDER=
